<svg xmlns="http://www.w3.org/2000/svg" viewBox="0 0 502.9 502.9"><title>aqac</title><circle cx="480" cy="280" r="240.08" transform="rotate(-2.19 -381.043 6244.45)" fill="#fff" stroke="#4d4d4d" stroke-miterlimit="10" stroke-width="22.739"/><path d="M174.9 128.51a150 150 0 0 1 154.12-1.19" fill="none" stroke="#ccc" stroke-linecap="round" stroke-miterlimit="10" stroke-width="18.1"/><path fill="none" stroke="#ccc" stroke-linecap="round" stroke-linejoin="round" stroke-width="18.1" d="M313.36 80.62l16.5 47.52-47.52 16.5"/><path d="M400.76 249.21a150 150 0 0 1-75.56 134.32" fill="none" stroke="#ccc" stroke-linecap="round" stroke-miterlimit="10" stroke-width="18.1"/><path fill="none" stroke="#ccc" stroke-linecap="round" stroke-linejoin="round" stroke-width="18.1" d="M373.5 393.16l-49.43-9.3 9.29-49.44"/><path d="M182.23 384.39a150 150 0 0 1-77.44-133.25" fill="none" stroke="#ccc" stroke-linecap="round" stroke-miterlimit="10" stroke-width="18.1"/><path fill="none" stroke="#ccc" stroke-linecap="round" stroke-linejoin="round" stroke-width="18.1" d="M72 287.89L105.08 250l37.89 33.09"/><path d="M126.5 230.17a49.77 49.77 0 1 1 49.77-49.77 49.83 49.83 0 0 1-49.77 49.77z" fill="#00aeef"/><circle cx="375.68" cy="180.4" r="49.77" fill="#8cc63f"/><circle cx="373.68" cy="180.4" r="49.77" fill="#8cc63f"/><circle cx="251.12" cy="395.96" r="49.77" fill="#fcb040"/></svg>