<svg xmlns="http://www.w3.org/2000/svg" viewBox="0 0 502.9 502.9"><defs><clipPath id="a" transform="translate(-228.55 -28.55)"><circle cx="479.5" cy="280" r="212.5" fill="none"/></clipPath></defs><title>uv-vis</title><circle cx="251.45" cy="251.45" r="240.08" fill="#fff" stroke="#4d4d4d" stroke-miterlimit="10" stroke-width="22.739"/><g clip-path="url(#a)"><rect x="48.67" y="208.66" width="29.56" height="262.41" rx="14.78" ry="14.78" fill="#662d91"/><rect x="95.67" y="172.45" width="29.56" height="299" rx="14.78" ry="14.78" fill="#0d76bc"/><rect x="142.67" y="81.11" width="29.56" height="390.33" rx="14.78" ry="14.78" fill="#00aeef"/><rect x="189.67" y="131" width="29.56" height="340.45" rx="14.78" ry="14.78" fill="#8dc63f"/><rect x="236.67" y="55.66" width="29.56" height="415.79" rx="14.78" ry="14.78" fill="#0d9550"/><rect x="283.67" y="73.27" width="29.56" height="398.18" rx="14.78" ry="14.78" fill="#fcb040"/><rect x="330.67" y="172.45" width="29.56" height="299" rx="14.78" ry="14.78" fill="#f1592a"/><rect x="377.67" y="131" width="29.56" height="340.45" rx="14.78" ry="14.78" fill="#ed1c23"/><rect x="424.67" y="208.66" width="29.56" height="262.41" rx="14.78" ry="14.78" fill="#761213"/></g></svg>