<svg xmlns="http://www.w3.org/2000/svg" viewBox="0 0 502.9 502.9"><title>iso</title><circle cx="251.45" cy="251.45" r="240.08" fill="#fff" stroke="#4d4d4d" stroke-miterlimit="10" stroke-width="22.739"/><circle cx="250.9" cy="251.45" r="212.5" fill="none"/><path fill="none" stroke="#00aeef" stroke-linejoin="round" stroke-width="20" d="M129.33 112.69h244.24V397.9H129.33z"/><path fill="#fff" d="M286.39 366.16h53.45v55.08h-53.45z"/><path d="M313.89 360a39.87 39.87 0 1 1 39.87-39.87A39.8 39.8 0 0 1 313.89 360zm5.7 47a9.42 9.42 0 0 0-10 0l-12.34 7.12v-38a59.33 59.33 0 0 0 33.22 0v37.5zm-41.29-9.57v33.3a10.6 10.6 0 0 0 4.75 8.54 8.62 8.62 0 0 0 9.49 0l21.83-12.81 20.88 12.81a8.62 8.62 0 0 0 9.49 0 9.79 9.79 0 0 0 4.75-8.07v-64.57a58.85 58.85 0 1 0-71.19 0v30.77z" fill="#f1592a"/><text transform="translate(178.08 215.09)" font-size="88.085" fill="#fcb040" font-family="Courier" font-weight="700"><tspan letter-spacing="-7">I</tspan><tspan x="45.84" y="0" letter-spacing="-3">S</tspan><tspan x="94.83" y="0">O</tspan></text></svg>