<svg xmlns="http://www.w3.org/2000/svg" viewBox="0 0 502.9 502.9"><defs><linearGradient id="a" x1="248.9" y1="78.5" x2="248.9" y2="94.62" gradientUnits="userSpaceOnUse"><stop offset="0" stop-color="#761213"/><stop offset="1" stop-color="#ed1c23"/><stop offset="1" stop-color="#fff"/></linearGradient><linearGradient id="b" x1="248.9" y1="125.5" x2="248.9" y2="141.62" gradientUnits="userSpaceOnUse"><stop offset="0" stop-color="#ed1c23"/><stop offset="1" stop-color="#f1592a"/></linearGradient><linearGradient id="c" x1="248.9" y1="172.5" x2="248.9" y2="188.62" gradientUnits="userSpaceOnUse"><stop offset="0" stop-color="#f1592a"/><stop offset="1" stop-color="#fcb040"/></linearGradient><linearGradient id="d" x1="248.9" y1="219.5" x2="248.9" y2="235.62" gradientUnits="userSpaceOnUse"><stop offset="0" stop-color="#fcb040"/><stop offset="1" stop-color="#0d9550"/></linearGradient><linearGradient id="e" x1="248.9" y1="266.5" x2="248.9" y2="282.62" gradientUnits="userSpaceOnUse"><stop offset="0" stop-color="#0d9550"/><stop offset="1" stop-color="#8dc63f"/></linearGradient><linearGradient id="f" x1="248.9" y1="313.5" x2="248.9" y2="329.62" gradientUnits="userSpaceOnUse"><stop offset="0" stop-color="#8dc63f"/><stop offset="1" stop-color="#00aeef"/></linearGradient><linearGradient id="g" x1="248.9" y1="360.5" x2="248.9" y2="376.62" gradientUnits="userSpaceOnUse"><stop offset="0" stop-color="#00aeef"/><stop offset="1" stop-color="#0d76bc"/></linearGradient><linearGradient id="h" x1="248.9" y1="407.5" x2="248.9" y2="423.62" gradientUnits="userSpaceOnUse"><stop offset="0" stop-color="#0d76bc"/><stop offset="1" stop-color="#662d91"/></linearGradient></defs><title>espectrometria</title><circle cx="251.45" cy="251.45" r="240.08" fill="#fff" stroke="#4d4d4d" stroke-miterlimit="10" stroke-width="22.739"/><circle cx="251.45" cy="251.45" r="212.5" fill="none"/><rect x="234.12" y="48.17" width="29.56" height="76.56" rx="14.78" ry="14.78" fill="url(#a)"/><rect x="234.12" y="95.17" width="29.56" height="76.56" rx="14.78" ry="14.78" fill="url(#b)"/><rect x="234.12" y="142.17" width="29.56" height="76.56" rx="14.78" ry="14.78" fill="url(#c)"/><rect x="234.12" y="189.17" width="29.56" height="76.56" rx="14.78" ry="14.78" fill="url(#d)"/><rect x="234.12" y="236.17" width="29.56" height="76.56" rx="14.78" ry="14.78" fill="url(#e)"/><rect x="234.12" y="283.17" width="29.56" height="76.56" rx="14.78" ry="14.78" fill="url(#f)"/><rect x="234.12" y="330.17" width="29.56" height="76.56" rx="14.78" ry="14.78" fill="url(#g)"/><rect x="234.12" y="377.17" width="29.56" height="76.56" rx="14.78" ry="14.78" fill="url(#h)"/><path d="M199.72 438.95a14.78 14.78 0 0 1 14.78-14.78h34.4a14.78 14.78 0 0 1 14.78 14.78 14.78 14.78 0 0 1-14.78 14.78h-34.4a14.78 14.78 0 0 1-14.78-14.78z" fill="#662d91"/><path d="M163.13 391.95a14.78 14.78 0 0 1 14.78-14.78h71a14.78 14.78 0 0 1 14.78 14.78 14.78 14.78 0 0 1-14.78 14.78h-71a14.78 14.78 0 0 1-14.78-14.78z" fill="#0d76bc"/><path d="M71.8 344.95a14.78 14.78 0 0 1 14.78-14.78H248.9a14.78 14.78 0 0 1 14.78 14.78 14.78 14.78 0 0 1-14.78 14.78H86.58a14.78 14.78 0 0 1-14.78-14.78z" fill="#00aeef"/><path d="M121.68 297.95a14.78 14.78 0 0 1 14.78-14.78H248.9a14.78 14.78 0 0 1 14.78 14.78 14.78 14.78 0 0 1-14.78 14.78H136.46a14.78 14.78 0 0 1-14.78-14.78z" fill="#8dc63f"/><rect x="46.34" y="236.17" width="217.34" height="29.56" rx="14.78" ry="14.78" fill="#0d9550"/><rect x="274.31" y="236.17" width="183.34" height="29.56" rx="14.78" ry="14.78" fill="gray"/><path d="M64 203.95a14.78 14.78 0 0 1 14.78-14.78H248.9a14.78 14.78 0 0 1 14.78 14.78 14.78 14.78 0 0 1-14.78 14.78H78.73A14.78 14.78 0 0 1 64 203.95z" fill="#fcb040"/><path d="M163.13 156.95a14.78 14.78 0 0 1 14.78-14.78h71a14.78 14.78 0 0 1 14.78 14.78 14.78 14.78 0 0 1-14.78 14.78h-71a14.78 14.78 0 0 1-14.78-14.78z" fill="#f1592a"/><path d="M121.68 109.95a14.78 14.78 0 0 1 14.78-14.78H248.9a14.78 14.78 0 0 1 14.78 14.78 14.78 14.78 0 0 1-14.78 14.78H136.46a14.78 14.78 0 0 1-14.78-14.78z" fill="#ed1c23"/><path d="M199.72 62.95a14.78 14.78 0 0 1 14.78-14.78h34.4a14.78 14.78 0 0 1 14.78 14.78 14.78 14.78 0 0 1-14.78 14.78h-34.4a14.78 14.78 0 0 1-14.78-14.78z" fill="#761213"/></svg>