<svg xmlns="http://www.w3.org/2000/svg" viewBox="0 0 502.9 502.9"><title>abnt_iso</title><circle cx="251.45" cy="251.45" r="240.08" fill="#fff" stroke="#4d4d4d" stroke-miterlimit="10" stroke-width="22.739"/><circle cx="250.9" cy="251.45" r="212.5" fill="none"/><path d="M175.16 161.41h155.29a8.875 8.875 0 0 0 0-17.75H175.16a8.875 8.875 0 1 0 0 17.75zM175.16 196.9h155.29a8.875 8.875 0 0 0 0-17.75H175.16a8.875 8.875 0 1 0 0 17.75zM285.63 223.52a8.9 8.9 0 0 0-8.87-8.87h-101.6a8.875 8.875 0 0 0 0 17.75h101.6a8.9 8.9 0 0 0 8.87-8.88z" fill="#fcb040"/><path fill="none" stroke="#00aeef" stroke-linejoin="round" stroke-width="20" d="M137.3 111.7h228.3v266.6H137.3z"/><path fill="#fff" d="M284.11 348.63h49.96v51.48h-49.96z"/><path d="M309.82 342.86a37.27 37.27 0 1 1 37.27-37.27 37.21 37.21 0 0 1-37.27 37.27zm5.32 43.92a8.81 8.81 0 0 0-9.32 0l-11.54 6.65v-35.48a55.46 55.46 0 0 0 31.06 0V393zm-38.6-8.94V409a9.91 9.91 0 0 0 4.44 8 8.06 8.06 0 0 0 8.87 0l20.41-12 19.52 12a8.06 8.06 0 0 0 8.87 0 9.15 9.15 0 0 0 4.44-7.54v-60.39a55 55 0 1 0-66.55 0v28.77z" fill="#f1592a"/></svg>