<svg xmlns="http://www.w3.org/2000/svg" viewBox="0 0 500 250"><title>logo</title><path d="M472.72 142.72A27.28 27.28 0 1 0 500 170a27.27 27.27 0 0 0-27.28-27.28zm0 47.77a20.49 20.49 0 1 1 20.5-20.49 20.49 20.49 0 0 1-20.5 20.48z" fill="#f29100"/><path d="M456.73 175.17a1.9 1.9 0 0 1-1.9-1.9v-6.56a1.9 1.9 0 0 1 1.9-1.9 1.9 1.9 0 0 1 1.9 1.9v6.56a1.9 1.9 0 0 1-1.9 1.9zM461.82 178.09a1.9 1.9 0 0 1-1.9-1.9v-12.4a1.9 1.9 0 0 1 1.9-1.9 1.9 1.9 0 0 1 1.9 1.9v12.41a1.9 1.9 0 0 1-1.9 1.89zM488.72 164.82a1.9 1.9 0 0 1 1.9 1.9v6.56a1.9 1.9 0 0 1-1.9 1.9 1.9 1.9 0 0 1-1.9-1.9v-6.56a1.9 1.9 0 0 1 1.9-1.9z" fill="#f29100"/><rect x="481.73" y="161.89" width="3.79" height="16.2" rx="1.08" ry="1.08" transform="rotate(180 483.63 169.99)" fill="#f29100"/><path d="M467.54 183.12a1.9 1.9 0 0 1-1.9-1.9v-22.46a1.9 1.9 0 0 1 1.9-1.9 1.9 1.9 0 0 1 1.9 1.9v22.46a1.9 1.9 0 0 1-1.9 1.9zM472.69 179.49a1.9 1.9 0 0 1-1.9-1.9v-15.21a1.9 1.9 0 0 1 1.9-1.9 1.9 1.9 0 0 1 1.9 1.9v15.22a1.9 1.9 0 0 1-1.9 1.89zM478 186.1a1.9 1.9 0 0 1-1.9-1.9v-28.42a1.9 1.9 0 0 1 1.9-1.9 1.9 1.9 0 0 1 1.9 1.9v28.42a1.9 1.9 0 0 1-1.9 1.9z" fill="#f29100"/><path d="M209.63 186.42a11 11 0 0 1-11 11H110.9a11 11 0 0 1-7.81-18.64l69.07-69h-61.25a11 11 0 0 1 0-21.93h87.76a11 11 0 0 1 7 19.36l-68.35 68.35h61.31a11 11 0 0 1 11 10.86z" fill="#555759"/><path d="M109.69 142.57a11 11 0 1 0-21.94 0 32.9 32.9 0 0 1-65.81 0v-32.9h43.87a11 11 0 1 0 0-21.93H21.95V11h-.15v-.06a10.9 10.9 0 1 0-21.8 0v131.62a54.85 54.85 0 0 0 109.69 0zM275.51 0a54.85 54.85 0 0 0-54.85 54.85v131.57a11 11 0 0 0 21.93 0v-76.75h32.9a11 11 0 0 0 0-21.93h-32.88V54.85a32.9 32.9 0 0 1 65.81 0 11 11 0 0 0 21.93 0A54.85 54.85 0 0 0 275.51 0zM26.92 247.22a.87.87 0 0 1-.77.77 34.28 34.28 0 0 1-11 1.73C3.27 249.71 0 243.23 0 231.57s3.27-18.09 15.14-18.09a34.32 34.32 0 0 1 11 1.73.86.86 0 0 1 .77.77 1 1 0 0 1 0 .29l-.43 1.82a.63.63 0 0 1-.63.62 2.5 2.5 0 0 1-.53-.1 37.86 37.86 0 0 0-9.9-1.49c-9 0-11.15 4.42-11.15 14.4S6.34 246 15.38 246a36.21 36.21 0 0 0 9.9-1.44 2.17 2.17 0 0 1 .53 0 .62.62 0 0 1 .63.57l.43 1.78a2.61 2.61 0 0 1 .05.31zM44.7 250c-10 0-11.25-6-11.25-13.2s1.2-13.24 11.25-13.24 11.3 6 11.3 13.24S54.8 250 44.7 250zm0-23.37c-7 0-7.26 4.08-7.26 10.18s.29 10.13 7.26 10.13 7.3-4.09 7.3-10.14-.33-10.17-7.3-10.17zm39.75 22.75H82.1a.68.68 0 0 1-.72-.72V230.9c0-3.17-1.2-4.27-4.57-4.27a36.24 36.24 0 0 0-9 1.35v20.68a.64.64 0 0 1-.67.72h-2.4a.68.68 0 0 1-.72-.72v-19.92c0-1.92.1-2.78 2.5-3.6a39.26 39.26 0 0 1 10.38-1.58c5.72 0 8.27 1.78 8.27 6.91v18.19a.68.68 0 0 1-.72.72zm17.88.62a25.07 25.07 0 0 1-8.51-1.63.52.52 0 0 1-.38-.48v-.14l.48-1.87a.49.49 0 0 1 .53-.43h.24a24 24 0 0 0 7.74 1.39c4.09 0 6.44-1.3 6.44-4.22 0-4-3.07-3.84-6.82-4.42-2.35-.38-8.36-.82-8.36-7.15s5.53-7.49 9.76-7.49a30.72 30.72 0 0 1 7.84 1 .52.52 0 0 1 .48.53v.1l-.34 2.11a.41.41 0 0 1-.43.38h-.1a50 50 0 0 0-7.07-.91c-3.46 0-6.34 1-6.34 4 0 3.26 3.27 3.65 6.25 4 4.33.58 9 .91 9 7.44-.02 6.25-4.83 7.79-10.41 7.79zm28.55 0c-8.46 0-10.57-3.6-10.57-9.93v-15.26a.63.63 0 0 1 .63-.62l2.59-.63h.14a.52.52 0 0 1 .43.63v16.27c0 4.51 1.59 6.53 6.78 6.53 6.25 0 6.73-3.07 6.73-6.67v-15.5a.67.67 0 0 1 .63-.62l2.6-.63h.16a.55.55 0 0 1 .48.63V240c-.02 4.72-.69 10-10.59 10zm28.21-1.2a.48.48 0 0 1-.38.48 9 9 0 0 1-3.41.57c-2.88 0-4.81-1.39-4.81-4.94v-30.37a.55.55 0 0 1 .58-.58l2.59-.67h.14a.55.55 0 0 1 .48.63v30.91c0 1.73 1.2 2 2.16 2a6.46 6.46 0 0 0 1.68-.19h.24a.32.32 0 0 1 .34.33l.33 1.68a1.2 1.2 0 0 0 .07.15zm20.14-.19a.57.57 0 0 1-.38.48 19.25 19.25 0 0 1-5.85.91c-4.76 0-7-2.06-7-6.67v-26.4a.56.56 0 0 1 .58-.58l2.6-.67h.14a.55.55 0 0 1 .48.62v7.87h8.07a.68.68 0 0 1 .72.72v1.63a.68.68 0 0 1-.72.72h-8.07v16.46c0 2.64 1.44 3.21 3.94 3.21a21.82 21.82 0 0 0 4.42-.62h.14a.55.55 0 0 1 .53.43l.43 1.78v.1zm16.64 1.39c-10 0-11.25-6-11.25-13.2s1.2-13.24 11.25-13.24 11.25 6 11.25 13.24S206 250 195.87 250zm0-23.37c-7 0-7.26 4.08-7.26 10.18s.29 10.13 7.26 10.13 7.26-4.08 7.26-10.13-.29-10.18-7.26-10.18zm31.58.29a33.66 33.66 0 0 0-8.46.91v20.83a.64.64 0 0 1-.67.72h-2.4a1.13 1.13 0 0 1-.72-.72v-20c0-2.11.43-2.74 2.07-3.5a27.15 27.15 0 0 1 8.75-1.58h1.2a.63.63 0 0 1 .67.72v2.06c-.01.32-.1.56-.44.56zm10.43-7.05h-2.35a.67.67 0 0 1-.72-.67V214a.68.68 0 0 1 .72-.72h2.35a.68.68 0 0 1 .72.72v5.18a.67.67 0 0 1-.72.68zm0 29.51h-2.35a.68.68 0 0 1-.72-.72V224.9a.68.68 0 0 1 .72-.72h2.35a.68.68 0 0 1 .72.72v23.76a.68.68 0 0 1-.72.72zm26.77 0a31.77 31.77 0 0 1-6.25.67c-4.13 0-11-.14-11-7.92 0-6.43 3.56-6.77 8.31-7.53l9.08-1.49v-2.26c0-1.54 0-2.78-1.73-3.41a11.76 11.76 0 0 0-4.37-.57 35.92 35.92 0 0 0-8.89 1.39h-.29a.49.49 0 0 1-.48-.39l-.43-2.16v-.1a.62.62 0 0 1 .48-.57 33.68 33.68 0 0 1 10-1.49c3.41 0 5.62.48 7 1.25 2.45 1.29 2.5 3.55 2.5 5.81v13.77c.06 3.37-.58 4.13-3.92 4.95zm.19-13.25l-8.84 1.44c-2.31.43-4.66.53-4.66 4.32 0 4.8 3.94 5.14 7.11 5.14a20.68 20.68 0 0 0 6.39-1v-10zM319.21 248.8a.52.52 0 0 1-.53.58h-3a.79.79 0 0 1-.67-.48l-5.19-14.59h-13.7l-5 14.69a.85.85 0 0 1-.72.38h-3a.5.5 0 0 1-.53-.53.92.92 0 0 1 .1-.38l12.38-33.93a1.12 1.12 0 0 1 .86-.62h5.9a1.05 1.05 0 0 1 .86.62l12.19 33.93c0 .09.05.23.05.33zm-15.31-31.53H302l-4.75 13.54h11.52zm42.33 32.11h-2.35a.68.68 0 0 1-.72-.72V230.9c0-3.17-1.2-4.27-4.56-4.27a36.12 36.12 0 0 0-9 1.35v20.68a.64.64 0 0 1-.67.72h-2.4a.68.68 0 0 1-.72-.72v-19.92c0-1.92.1-2.78 2.5-3.6a39.14 39.14 0 0 1 10.37-1.59c5.71 0 8.25 1.78 8.25 6.91v18.19a.68.68 0 0 1-.71.73zm25.87 0a31.64 31.64 0 0 1-6.24.67c-4.13 0-11-.14-11-7.92 0-6.43 3.55-6.77 8.3-7.54l9.07-1.49v-2.3c0-1.54 0-2.79-1.73-3.41a11.67 11.67 0 0 0-4.37-.58 35.79 35.79 0 0 0-8.88 1.39h-.29a.49.49 0 0 1-.48-.38l-.43-2.16v-.1a.63.63 0 0 1 .48-.58 33.58 33.58 0 0 1 10-1.49c3.41 0 5.61.48 7 1.25 2.45 1.3 2.5 3.55 2.5 5.81v13.77c.05 3.43-.62 4.19-3.94 5.01zm.19-13.24l-8.83 1.49c-2.31.43-4.66.53-4.66 4.32 0 4.8 3.93 5.14 7.1 5.14a20.55 20.55 0 0 0 6.38-1v-10zm21.55 12.72a.48.48 0 0 1-.38.48 9 9 0 0 1-3.41.58c-2.88 0-4.8-1.39-4.8-4.94v-30.45a.55.55 0 0 1 .58-.58l2.59-.67h.14a.55.55 0 0 1 .48.63v30.9c0 1.73 1.2 2 2.16 2a6.48 6.48 0 0 0 1.68-.19h.24a.32.32 0 0 1 .34.33l.34 1.68a1.06 1.06 0 0 0 .04.17zm13.53-33.16a.51.51 0 0 1-.14.33l-6.53 4.75a.51.51 0 0 1-.24.1.73.73 0 0 1-.38-.19l-1.44-1.82a.22.22 0 0 1-.1-.24.43.43 0 0 1 .15-.33l6.48-4.85a.51.51 0 0 1 .24-.1.49.49 0 0 1 .38.19l1.49 1.92a.23.23 0 0 1 .09.18zm-2.78 33.74h-2.35a.68.68 0 0 1-.72-.72V224.9a.68.68 0 0 1 .72-.72h2.35a.68.68 0 0 1 .72.72v23.76a.68.68 0 0 1-.72.72zm24.09-.77a.56.56 0 0 1-.39.48 19.1 19.1 0 0 1-5.86.91c-4.75 0-7-2.06-7-6.67v-26.46a.55.55 0 0 1 .58-.57l2.59-.67h.14a.55.55 0 0 1 .48.63v7.87h8.06a.68.68 0 0 1 .72.72v1.63a.68.68 0 0 1-.72.72h-8.06v16.46c0 2.64 1.44 3.22 3.94 3.22a21.68 21.68 0 0 0 4.41-.62h.15a.55.55 0 0 1 .53.43l.43 1.78v.1zm10.51-28.75h-2.35a.67.67 0 0 1-.72-.67V214a.68.68 0 0 1 .72-.72h2.35a.68.68 0 0 1 .72.72v5.18a.67.67 0 0 1-.72.68zm0 29.51h-2.35a.68.68 0 0 1-.72-.72V224.9a.68.68 0 0 1 .72-.72h2.35a.68.68 0 0 1 .72.72v23.76a.68.68 0 0 1-.72.72zm28.8-1.25a.69.69 0 0 1-.48.62 23.25 23.25 0 0 1-7.39 1.25c-9 0-11.33-4.22-11.33-13.2s2.35-13.25 11.33-13.25a23.29 23.29 0 0 1 7.39 1.25.69.69 0 0 1 .48.63 2.17 2.17 0 0 1 0 .24l-.34 1.63a.58.58 0 0 1-.58.58 1.63 1.63 0 0 0-.29 0 25.1 25.1 0 0 0-6.43-1.15c-5.76 0-7.58 2.45-7.58 10.08s1.82 10.13 7.58 10.13a25.94 25.94 0 0 0 6.43-1.06 1.63 1.63 0 0 0 .29 0 .58.58 0 0 1 .58.58l.34 1.54c-.05-.05.01-.05.01.08zm23.42 1.2a31.64 31.64 0 0 1-6.24.67c-4.13 0-11-.14-11-7.92 0-6.43 3.55-6.77 8.3-7.54l9.07-1.49v-2.3c0-1.54 0-2.79-1.73-3.41a11.65 11.65 0 0 0-4.37-.58 35.84 35.84 0 0 0-8.88 1.39h-.29a.49.49 0 0 1-.48-.38l-.43-2.16v-.1a.63.63 0 0 1 .48-.58 33.57 33.57 0 0 1 10-1.49c3.41 0 5.62.48 7 1.25 2.45 1.3 2.5 3.55 2.5 5.81v13.77c.05 3.43-.62 4.19-3.94 5.01zm.19-13.24l-8.83 1.49c-2.3.43-4.65.53-4.65 4.32 0 4.8 3.94 5.14 7.1 5.14a20.56 20.56 0 0 0 6.38-1v-10z" fill="#555759"/><path d="M377.14 156.6v-7.16h1.09a3.42 3.42 0 0 0 0-6.84h-22.78a3.43 3.43 0 1 0 0 6.85h1.14v7.15a21.68 21.68 0 1 0 20.55 0zm-10.27 33.94a14.84 14.84 0 0 1-3.43-29.28v-11.82h6.85v11.81a14.84 14.84 0 0 1-3.43 29.29z" fill="#f65097"/><path d="M439.78 166.61a22.83 22.83 0 1 0-29.9 21.7 16 16 0 0 0 13.76 7.88c.51 0 1 0 1.53-.07a4.49 4.49 0 0 1-2.51-7.4 22.84 22.84 0 0 0 17.12-22.11zm-24.25 20.21a13.66 13.66 0 0 1-2.57-4.74 16 16 0 1 1 5.19.46l-.21.24c-.19.22-.37.43-.54.66s-.25.35-.37.53-.26.37-.37.57a13.64 13.64 0 0 0-1.13 2.28z" fill="#00b3e3"/><path d="M312.2 142.61A27.38 27.38 0 1 0 339.58 170a27.38 27.38 0 0 0-27.38-27.39zm2.3 47.81v-10.76a6.85 6.85 0 0 0 10.5-8.51 6.85 6.85 0 0 0-5.95-10.27 6.86 6.86 0 1 0-13.72 0 6.86 6.86 0 0 0-6 10.27 6.85 6.85 0 0 0 10.54 8.49v10.78a20.54 20.54 0 1 1 4.63-.01z" fill="#77bc1f"/></svg>